<svg xmlns="http://www.w3.org/2000/svg" viewBox="0 0 578.9 453.95"><defs><style>.cls-1{fill:#fff;}</style></defs><title>Asset 1</title><g id="Layer_2" data-name="Layer 2"><g id="Layer_1-2" data-name="Layer 1"><path class="cls-1" d="M0,454V0H578.9V454ZM147.4,360.9H430c3.21,0,3.22,0,3.22,3.3,0,11-.25,22,.11,33a72.31,72.31,0,0,0,2.38,16c2.42,9.18,8.17,16.32,14.87,22.93,13.43,13.25,29.72,15.73,47.37,13.11,7.87-1.17,14.8-4.79,21.06-9.72,13.1-10.31,20.51-23.62,20.9-40.41.27-11.83.11-23.66,0-35.49,0-2,.52-2.73,2.64-2.7,8,.12,16-.18,24,.12,5.62.21,9.33-4.12,9.32-9.32-.1-35.66,0-71.33-.08-107a60.16,60.16,0,0,0-5.27-24.94,63.87,63.87,0,0,0-22.31-26.34c-7-4.89-14.72-8.46-23.36-9.37-5.52-.58-11.09-.76-16.65-1-1.79-.08-2.83-.45-3.32-2.45-2.53-10.39-5.27-20.72-7.86-31.1-3.53-14.15-7-28.33-10.5-42.49-2.84-11.43-5.61-22.88-8.66-34.25a194.31,194.31,0,0,0-6.26-19.92c-4.15-10.71-11.72-19-20-26.77-15.26-14.27-33.36-21.8-54.19-21.85Q290.77,4,184.16,4.16a75.23,75.23,0,0,0-9.48.41A82.49,82.49,0,0,0,128.8,25.79c-11.11,10-19.38,21.9-23.47,36.41-2.38,8.45-4.42,17-6.57,25.52q-4.22,16.68-8.37,33.38Q84.67,144,79,166.81c-1.35,5.37-2.73,10.73-4.13,16.2H65.1a56.15,56.15,0,0,0-25.94,6.22C28.39,194.74,20,203,13.51,213.11c-5,7.74-8.35,16.25-8.4,25.51C4.91,276.69,5,314.77,5,352.85c0,4.86,3.27,8,8.18,8,8.17,0,16.33.07,24.5,0,2.07,0,2.71.59,2.7,2.68-.09,11.08-.05,22.16,0,33.25a56.29,56.29,0,0,0,.23,6.49c1.77,14.94,9.19,26.68,20.67,36.07,12.34,10.08,26.77,12.12,41.93,10.2,10.9-1.38,20.06-6.72,27.89-14.39,9.21-9,15.09-19.78,15.74-32.73.64-12.63.43-25.3.59-38C147.41,363.47,147.4,362.48,147.4,360.9Z"/><path d="M147.4,360.9c0,1.58,0,2.57,0,3.56-.16,12.65,0,25.33-.59,38-.65,12.95-6.53,23.72-15.74,32.73-7.83,7.67-17,13-27.89,14.39-15.16,1.92-29.59-.12-41.93-10.2-11.48-9.38-18.9-21.12-20.67-36.07a56.29,56.29,0,0,1-.23-6.49c0-11.08-.06-22.16,0-33.25,0-2.09-.63-2.71-2.7-2.68-8.16.1-16.33.05-24.5,0-4.9,0-8.18-3.18-8.18-8,0-38.08-.09-76.16.11-114.24,0-9.25,3.42-17.77,8.4-25.51C20,203,28.39,194.74,39.16,189.22A56.15,56.15,0,0,1,65.1,183h9.74c1.39-5.47,2.78-10.83,4.13-16.2Q84.69,144,90.39,121.1q4.17-16.69,8.37-33.38c2.15-8.52,4.19-17.07,6.57-25.52,4.09-14.5,12.36-26.36,23.47-36.41A82.49,82.49,0,0,1,174.68,4.57a75.23,75.23,0,0,1,9.48-.41q106.61,0,213.23,0c20.84,0,38.93,7.58,54.19,21.85,8.28,7.74,15.84,16.06,20,26.77a194.31,194.31,0,0,1,6.26,19.92c3.05,11.37,5.82,22.82,8.66,34.25,3.52,14.16,7,28.33,10.5,42.49,2.59,10.37,5.33,20.71,7.86,31.1.49,2,1.53,2.37,3.32,2.45,5.55.23,11.12.42,16.65,1,8.63.9,16.33,4.48,23.36,9.37a63.87,63.87,0,0,1,22.31,26.34,60.16,60.16,0,0,1,5.27,24.94c.07,35.66,0,71.33.08,107,0,5.19-3.7,9.53-9.32,9.32-8-.3-16,0-24-.12-2.12,0-2.65.66-2.64,2.7.08,11.83.24,23.67,0,35.49-.39,16.79-7.8,30.1-20.9,40.41-6.26,4.93-13.19,8.55-21.06,9.72-17.66,2.62-33.94.14-47.37-13.11-6.7-6.61-12.45-13.75-14.87-22.93a72.31,72.31,0,0,1-2.38-16c-.36-11-.11-22-.11-33,0-3.29,0-3.3-3.22-3.3H147.4Zm.94-178.11H432c-.13-.76-.19-1.33-.32-1.88-2.66-10.81-5.29-21.63-8-32.43Q418.33,127,412.9,105.56q-2.55-10.17-5.09-20.34c-1.42-5.69-6-9.7-11.16-9.7q-106.49,0-213,.06a11,11,0,0,0-5.14,1.52,12.38,12.38,0,0,0-6.12,8.6c-2.88,12.4-6.19,24.7-9.28,37.05q-5,20-9.88,40C151.65,169.25,150.06,175.78,148.34,182.79ZM93.83,316.54c23.93,1.15,45-20.82,44.83-45-.19-23-20.56-44.57-45-44.37-25,.21-45,21.16-44.84,45C49,296.29,69,317.29,93.83,316.54ZM531.33,272c1-23.89-20.75-44.82-44.49-44.91-24.21-.09-45.12,21.3-45.14,44.52,0,24.49,20.76,44.93,44.73,45.11S532.23,296,531.33,272Z"/><path class="cls-1" d="M148.34,182.79c1.72-7,3.31-13.54,4.92-20.07q4.93-20,9.88-40c3.09-12.35,6.4-24.65,9.28-37.05a12.38,12.38,0,0,1,6.12-8.6,11,11,0,0,1,5.14-1.52q106.49-.11,213-.06c5.2,0,9.74,4,11.16,9.7q2.53,10.17,5.09,20.34,5.39,21.46,10.78,42.92c2.69,10.8,5.33,21.62,8,32.43.14.55.19,1.12.32,1.88Z"/><path class="cls-1" d="M93.83,316.54c-24.82.75-44.78-20.25-45-44.4-.19-23.81,19.81-44.77,44.84-45,24.39-.21,44.77,21.4,45,44.37C138.85,295.72,117.76,317.68,93.83,316.54Z"/><path class="cls-1" d="M531.33,272c.9,24-20.84,44.9-44.9,44.72s-44.76-20.62-44.73-45.11c0-23.22,20.93-44.61,45.14-44.52C510.58,227.21,532.33,248.15,531.33,272Z"/></g></g></svg>